<svg width="26" height="28" viewBox="0 0 26 28" fill="none" xmlns="http://www.w3.org/2000/svg">
<path d="M17.0465 21.1991C19.7304 20.8807 22.3186 20.2497 24.7734 19.3435C22.7379 17.0841 21.499 14.093 21.499 10.8125V9.81968C21.4992 9.79648 21.4993 9.77325 21.4993 9.75C21.4993 5.05558 17.6937 1.25 12.9993 1.25C8.30485 1.25 4.49927 5.05558 4.49927 9.75L4.49899 10.8125C4.49899 14.093 3.26007 17.0841 1.22461 19.3435C3.67959 20.2498 6.26788 20.8808 8.95204 21.1992M17.0465 21.1991C15.7192 21.3565 14.3686 21.4375 12.999 21.4375C11.6296 21.4375 10.2791 21.3565 8.95204 21.1992M17.0465 21.1991C17.1782 21.6091 17.2493 22.0462 17.2493 22.5C17.2493 24.8472 15.3465 26.75 12.9993 26.75C10.6521 26.75 8.74927 24.8472 8.74927 22.5C8.74927 22.0463 8.82037 21.6091 8.95204 21.1992" stroke="white" stroke-width="2" stroke-linecap="round" stroke-linejoin="round"/>
</svg>
