<svg width="33" height="28" viewBox="0 0 33 28" fill="none" xmlns="http://www.w3.org/2000/svg">
<path d="M24.4912 15.4583C23.4678 15.4583 22.5443 16.028 21.9127 16.8388C20.9314 18.0984 19.6946 19.1468 18.2809 19.9047C17.3644 20.3961 16.569 21.1262 16.1834 22.0969C15.9135 22.776 15.7749 23.5008 15.7749 24.2323V25.0417C15.7749 25.5709 15.3487 26 14.8229 26C13.2457 26 11.9672 24.7128 11.9672 23.125C11.9672 21.6535 12.2966 20.2594 12.8853 19.0135C13.2224 18.3001 12.7495 17.375 11.9648 17.375M11.9648 17.375H7.99737C6.69433 17.375 5.52798 16.4882 5.39003 15.1838C5.33297 14.6443 5.30371 14.0964 5.30371 13.5417C5.30371 9.90304 6.56264 6.56043 8.6659 3.93122C9.15786 3.31623 9.91839 3 10.7027 3H15.7999C16.4138 3 17.0237 3.09963 17.6061 3.29507L21.559 4.6216C22.1414 4.81703 22.7513 4.91667 23.3652 4.91667H25.4157M11.9648 17.375H14.8229M25.4157 4.91667C25.3106 4.65526 25.1962 4.39863 25.073 4.14719C24.8227 3.63667 25.172 3 25.7375 3H26.8897C28.0176 3 29.0638 3.66191 29.393 4.74805C29.8226 6.16553 30.0537 7.67018 30.0537 9.22917C30.0537 11.2129 29.6795 13.1086 28.9984 14.8487C28.6112 15.8378 27.6202 16.4167 26.5641 16.4167H25.2279C24.629 16.4167 24.2821 15.7063 24.5931 15.191C25.642 13.4525 26.246 11.4118 26.246 9.22917C26.246 7.70412 25.9512 6.24841 25.4157 4.91667Z" stroke="white" stroke-width="2" stroke-linecap="round" stroke-linejoin="round"/>
</svg>
