<svg width="29" height="28" viewBox="0 0 29 28" fill="none" xmlns="http://www.w3.org/2000/svg">
<path d="M7.71969 12.5417C8.58807 12.5417 9.37159 11.972 9.90749 11.1612C10.7401 9.90157 11.7895 8.85323 12.989 8.09527C13.7667 7.60386 14.4415 6.87381 14.7688 5.90315C14.9977 5.22396 15.1154 4.49916 15.1154 3.76765V2.95833C15.1154 2.42906 15.477 2 15.9231 2C17.2613 2 18.3462 3.28718 18.3462 4.875C18.3462 6.34653 18.0666 7.74059 17.5671 8.98651C17.2811 9.69994 17.6824 10.625 18.3482 10.625M18.3482 10.625H21.7145C22.8201 10.625 23.8097 11.5118 23.9268 12.8162C23.9752 13.3557 24 13.9036 24 14.4583C24 18.097 22.9318 21.4396 21.1472 24.0688C20.7298 24.6838 20.0845 25 19.419 25H15.0941C14.5732 25 14.0558 24.9004 13.5616 24.7049L10.2076 23.3784C9.71346 23.183 9.19599 23.0833 8.67512 23.0833H6.9353M18.3482 10.625H15.9231M6.9353 23.0833C7.02448 23.3447 7.12153 23.6014 7.22609 23.8528C7.4384 24.3633 7.14206 25 6.66227 25H5.68465C4.72757 25 3.83991 24.3381 3.5606 23.2519C3.19609 21.8345 3 20.3298 3 18.7708C3 16.7871 3.31748 14.8914 3.89545 13.1513C4.22397 12.1622 5.06482 11.5833 5.96085 11.5833H7.09459C7.60281 11.5833 7.8971 12.2937 7.63325 12.809C6.74326 14.5475 6.23077 16.5882 6.23077 18.7708C6.23077 20.2959 6.48096 21.7516 6.9353 23.0833Z" stroke="white" stroke-width="2" stroke-linecap="round" stroke-linejoin="round"/>
</svg>
